<svg width="187" height="42" viewBox="0 0 187 42" fill="none" xmlns="http://www.w3.org/2000/svg">
<path d="M183.137 32.2544V8.70117H187V32.2544H183.137Z" fill="#151515"/>
<path d="M159.704 23.6464V8.70117H163.568V23.7142C163.568 27.3743 165.635 29.1026 168.889 29.1026C172.176 29.1026 174.243 27.3743 174.243 23.7142V8.70117H178.106V23.6464C178.106 29.6449 173.769 32.4916 168.855 32.4916C163.907 32.4916 159.704 29.6449 159.704 23.6464Z" fill="#151515"/>
<path d="M150.595 22.4268V32.2547H146.732V13.5816H150.595V16.2928C151.68 14.4289 153.544 13.2766 156.187 13.2766V17.2756H155.204C152.358 17.2756 150.595 18.4617 150.595 22.4268Z" fill="#151515"/>
<path d="M133.678 16.53C131.069 16.53 128.967 18.2923 128.561 21.2406H138.897C138.829 18.36 136.559 16.53 133.678 16.53ZM142.422 26.6968C141.371 29.9502 138.423 32.5597 133.847 32.5597C128.493 32.5597 124.528 28.7641 124.528 22.9012C124.528 17.0383 128.324 13.2766 133.847 13.2766C139.168 13.2766 142.93 16.9706 142.93 22.4607C142.93 23.1046 142.896 23.7146 142.794 24.3585H128.527C128.798 27.4424 131.001 29.3063 133.847 29.3063C136.22 29.3063 137.541 28.1541 138.253 26.6968H142.422Z" fill="#151515"/>
<path d="M113.816 27.0696V16.7333H111.614V13.5816H113.816V8.93872H117.714V13.5816H122.255V16.7333H117.714V27.0696C117.714 28.4591 118.256 29.0352 119.883 29.0352H122.255V32.2547H119.205C115.884 32.2547 113.816 30.8652 113.816 27.0696Z" fill="#151515"/>
<path d="M109.032 27.0357C109.032 30.1875 106.287 32.5597 101.881 32.5597C97.4078 32.5597 94.2561 29.9163 94.0867 26.5274H98.0856C98.2212 28.0524 99.6784 29.3063 101.813 29.3063C104.05 29.3063 105.236 28.3574 105.236 27.0696C105.236 23.4096 94.3917 25.5107 94.3917 18.665C94.3917 15.6828 97.1706 13.2766 101.576 13.2766C105.812 13.2766 108.591 15.5472 108.795 19.275H104.931C104.796 17.6484 103.542 16.53 101.441 16.53C99.3734 16.53 98.289 17.3772 98.289 18.6311C98.289 22.3929 108.829 20.2917 109.032 27.0357Z" fill="#151515"/>
<path d="M70.8475 22.8334C70.8475 17.0722 74.7448 13.2766 79.6588 13.2766C82.8105 13.2766 84.9794 14.7677 86.1317 16.2928V13.5816H90.029V32.2547H86.1317V29.4758C84.9456 31.0686 82.7088 32.5597 79.591 32.5597C74.7448 32.5597 70.8475 28.5947 70.8475 22.8334ZM86.1317 22.9012C86.1317 18.9023 83.3866 16.6317 80.4721 16.6317C77.5915 16.6317 74.8126 18.8006 74.8126 22.8334C74.8126 26.8663 77.5915 29.2047 80.4721 29.2047C83.3866 29.2047 86.1317 26.9341 86.1317 22.9012Z" fill="#151515"/>
<path d="M54.6942 32.2544V8.70117H68.555V11.8529H58.5576V18.8002H66.3522V21.952H58.5576V32.2544H54.6942Z" fill="#151515"/>
<path fill-rule="evenodd" clip-rule="evenodd" d="M10.2552 0C4.59139 0 0 4.5914 0 10.2552V30.7655C0 36.4293 4.5914 41.0206 10.2552 41.0206H30.7655C36.4293 41.0206 41.0206 36.4293 41.0206 30.7655V10.2552C41.0206 4.59139 36.4293 0 30.7655 0H10.2552ZM27.4499 17.742C27.5235 17.7841 27.5843 17.8446 27.6263 17.9172C27.6683 17.9899 27.6899 18.0722 27.6889 18.1557C27.6879 18.2392 27.6643 18.321 27.6205 18.3926L20.0787 31.5703C20.0208 31.6598 19.9341 31.7278 19.8323 31.7634C19.7306 31.799 19.6196 31.8002 19.517 31.7668C19.4145 31.7334 19.3263 31.6673 19.2665 31.579C19.2066 31.4908 19.1786 31.3855 19.1868 31.2798L20.0246 23.3441H13.813C13.7274 23.3441 13.6433 23.3217 13.5694 23.2792C13.4956 23.2367 13.4346 23.1756 13.3929 23.1023C13.3511 23.029 13.33 22.9461 13.3318 22.8621C13.3336 22.7782 13.3581 22.6962 13.403 22.6246L21.0716 9.44553C21.1309 9.35615 21.2191 9.28895 21.3221 9.25474C21.425 9.22053 21.5367 9.2213 21.6392 9.25694C21.7416 9.29257 21.8289 9.36098 21.8868 9.45117C21.9448 9.54135 21.9702 9.64806 21.9589 9.7541L20.9017 17.6778H27.2075C27.2927 17.6778 27.3763 17.7 27.4499 17.742Z" fill="#151515"/>
</svg>
